<?xml version="1.0" encoding="UTF-8" standalone="no"?>
<!-- Created with Inkscape (http://www.inkscape.org/) -->

<svg
   xmlns:dc="http://purl.org/dc/elements/1.1/"
   xmlns:cc="http://creativecommons.org/ns#"
   xmlns:rdf="http://www.w3.org/1999/02/22-rdf-syntax-ns#"
   xmlns:svg="http://www.w3.org/2000/svg"
   xmlns="http://www.w3.org/2000/svg"
   xmlns:sodipodi="http://sodipodi.sourceforge.net/DTD/sodipodi-0.dtd"
   xmlns:inkscape="http://www.inkscape.org/namespaces/inkscape"
   id="svg3105"
   version="1.1"
   inkscape:version="0.48.5 r10040"
   width="990"
   height="765"
   xml:space="preserve"
   sodipodi:docname="Perked-Logos.ai"><metadata
     id="metadata3111"><rdf:RDF><cc:Work
         rdf:about=""><dc:format>image/svg+xml</dc:format><dc:type
           rdf:resource="http://purl.org/dc/dcmitype/StillImage" /><dc:title></dc:title></cc:Work></rdf:RDF></metadata><defs
     id="defs3109"><clipPath
       clipPathUnits="userSpaceOnUse"
       id="clipPath3119"><path
         d="M 0,612 792,612 792,0 0,0 0,612 z"
         id="path3121" /></clipPath><linearGradient
       x1="0"
       y1="0"
       x2="1"
       y2="0"
       gradientUnits="userSpaceOnUse"
       gradientTransform="matrix(173.91455,0,0,-173.91455,298.92725,187.84766)"
       spreadMethod="pad"
       id="linearGradient3163"><stop
         style="stop-opacity:1;stop-color:#f1623b"
         offset="0"
         id="stop3165" /><stop
         style="stop-opacity:1;stop-color:#f04d44"
         offset="1"
         id="stop3167" /></linearGradient><clipPath
       clipPathUnits="userSpaceOnUse"
       id="clipPath3175"><path
         d="M 0,612 792,612 792,0 0,0 0,612 z"
         id="path3177" /></clipPath></defs><sodipodi:namedview
     pagecolor="#ffffff"
     bordercolor="#666666"
     borderopacity="1"
     objecttolerance="10"
     gridtolerance="10"
     guidetolerance="10"
     inkscape:pageopacity="0"
     inkscape:pageshadow="2"
     inkscape:window-width="1220"
     inkscape:window-height="716"
     id="namedview3107"
     showgrid="false"
     inkscape:zoom="0.61699346"
     inkscape:cx="394.3273"
     inkscape:cy="323.1691"
     inkscape:window-x="0"
     inkscape:window-y="0"
     inkscape:window-maximized="0"
     inkscape:current-layer="g3113" /><g
     id="g3113"
     inkscape:groupmode="layer"
     inkscape:label="Perked-Logos"
     transform="matrix(1.25,0,0,-1.25,0,765)"><g
       id="g3459"><g
         id="g3151"><g
           id="g3153"><g
             id="g3159"><g
               id="g3161"><path
                 id="path3169"
                 style="fill:url(#linearGradient3163);stroke:none"
                 d="m 298.927,187.848 c 0,-48.026 38.933,-86.957 86.958,-86.957 l 0,0 c 48.025,0 86.957,38.931 86.957,86.957 l 0,0 c 0,48.024 -38.932,86.955 -86.957,86.955 l 0,0 c -48.025,0 -86.958,-38.931 -86.958,-86.955" /></g></g></g></g><g
         id="g3171"><g
           clip-path="url(#clipPath3175)"
           id="g3173"><g
             transform="translate(363.7788,181.2314)"
             id="g3179"><path
               id="path3181"
               style="fill:#ffffff;fill-opacity:1;fill-rule:nonzero;stroke:none"
               d="m 0,0 c -0.002,-0.014 4.553,-0.531 6.588,-0.531 9.284,0 16.649,2.711 21.952,8.771 7,8 11.835,23.5 4.031,38.129 -5.406,10.133 -15.955,9.77 -18.515,9.77 0,0 -5.516,0.101 -9.517,-0.567 C 6.873,26.572 0,0 0,0 m -27.793,38.906 c -2.294,-3.351 -3.275,-7.183 -2.844,-11.941 0.305,-3.354 2.245,-5.354 6.105,-6.299 5.999,-1.465 7.709,-6.43 7.779,-6.641 l 0.533,-1.607 c 1.042,7.289 3.093,27.488 1.816,37.82 -8.056,-0.332 -13.389,-11.332 -13.389,-11.332 m -4.51,-110.486 c -0.967,0 -1.978,0.094 -3.008,0.275 -3.76,0.662 -5.305,2.631 -5.939,4.166 -1.713,4.145 1.506,9.27 2.229,10.338 4.429,8.457 8.205,17.545 8.908,19.301 4.383,10.262 10.092,25.615 12.518,40.799 0.439,2.775 0.825,5.332 1.165,7.666 l -2.478,-0.217 c -0.055,-0.004 -1.356,-0.117 -3.356,-0.117 -6.379,0 -21.562,1.211 -24.765,12.42 -2.637,9.228 0.857,19.715 12.638,31.459 18.053,17.996 37.596,20.683 47.64,20.683 4.176,0 7.006,-0.453 7.867,-0.611 C 30.06,74.473 42.194,68.4 47.745,61.225 58.979,46.703 59.057,28.24 54.208,14.572 49.952,2.947 43.938,-3.789 38.237,-8.389 26.208,-18.094 2.551,-18.385 -0.453,-17.99 c -1.283,0.17 -2.432,0.344 -3.352,0.494 -0.769,-2.799 -2.154,-10.567 -3.394,-13.492 -0.465,-1.092 -1.268,-3.114 -2.285,-5.672 -5.788,-14.553 -8.704,-25.043 -12.043,-28.969 -0.788,-1.412 -3.858,-5.949 -10.776,-5.951" /></g><g
             transform="translate(422.6064,121.0664)"
             id="g3183"><path
               id="path3185"
               style="fill:#ffffff;fill-opacity:1;fill-rule:nonzero;stroke:none"
               d="m 0,0 c -2.752,0 -5.303,0.856 -7.578,2.544 -2.894,2.076 -4.427,5.178 -4.396,8.943 0.028,2.869 0.935,5.745 2.703,8.554 2.567,4.189 6.457,6.455 11.226,6.522 l 0.355,0.002 c 4.124,0 7.295,-1.088 9.426,-3.238 1.98,-1.997 2.966,-4.793 2.935,-8.305 C 14.635,11.089 13.225,7.594 10.481,4.633 7.685,1.618 4.226,0.059 0.202,0 L 0,0 z" /></g><g
             transform="translate(436.0664,155.4639)"
             id="g3187"><path
               id="path3189"
               style="fill:#ffffff;fill-opacity:1;fill-rule:nonzero;stroke:none"
               d="m 0,0 c -2.71,0 -5.173,0.784 -7.32,2.336 -3.448,2.459 -4.138,5.531 -4.109,7.675 0.016,1.106 0.052,3.7 12.324,50.95 4.243,16.291 6.072,22.439 7.868,28.265 2.84,9.022 4.657,11.75 5.78,13.018 1.562,1.663 5.635,3.279 10.513,3.279 2.967,0 5.991,-0.578 8.988,-1.716 l 0.446,-0.171 c 5.202,-1.977 9.694,-3.683 9.627,-8.693 C 44.097,93.666 43.46,92.176 41.761,88.192 40.347,84.877 38.408,80.339 36.164,74.282 31.933,62.938 28.228,53.511 25.147,46.248 20.626,35.623 16.386,25.03 12.546,14.763 9.069,5.702 7.971,3.598 7.356,2.73 6.095,0.95 3.76,0.059 0.22,0.002 L 0,0 z" /></g></g></g></g></g></svg>